<svg width="173" xmlns="http://www.w3.org/2000/svg" height="173" fill="none"><g data-testid="Group"><g data-testid="Rectangle"><defs><pattern patternUnits="userSpaceOnUse" x="82" y="0" width="9" height="32" id="a"><rect width="9" height="32" style="fill: rgb(177, 178, 181); fill-opacity: 1;"/><rect width="9" height="32" style="fill: rgb(223, 56, 190); fill-opacity: 1;"/></pattern></defs><path d="M82 0h9l-2 32h-5L82 0Z" fill="url(#a)" class="fills"/></g><path d="M82 173h9l-2-32h-5l-2 32Z" style="fill: rgb(177, 178, 181); fill-opacity: 1;" class="fills" data-testid="Rectangle"/><g data-testid="Rectangle"><defs><pattern patternUnits="userSpaceOnUse" x="100.247" y="2.402" width="9" height="32" patternTransform="rotate(15 104.747 18.402)" id="b"><rect width="9" height="32" style="fill: rgb(177, 178, 181); fill-opacity: 1;"/><rect width="9" height="32" style="fill: rgb(223, 56, 190); fill-opacity: 1;"/></pattern></defs><path d="m104.541 1.783 8.694 2.329-10.215 30.392-4.829-1.294 6.35-31.427Z" fill="url(#b)" class="fills"/></g><path d="m59.765 168.888 8.694 2.329 6.35-31.427-4.829-1.294-10.215 30.392Z" style="fill: rgb(177, 178, 181); fill-opacity: 1;" class="fills" data-testid="Rectangle"/><g data-testid="Rectangle"><defs><pattern patternUnits="userSpaceOnUse" x="117.25" y="9.445" width="9" height="32" patternTransform="rotate(30 121.75 25.445)" id="c"><rect width="9" height="32" style="fill: rgb(177, 178, 181); fill-opacity: 1;"/><rect width="9" height="32" style="fill: rgb(223, 56, 190); fill-opacity: 1;"/></pattern></defs><path d="m125.853 9.339 7.794 4.5-17.732 26.713-4.33-2.5 14.268-28.713Z" fill="url(#c)" class="fills"/></g><path d="m39.353 159.161 7.794 4.5 14.268-28.713-4.33-2.5-17.732 26.713Z" style="fill: rgb(177, 178, 181); fill-opacity: 1;" class="fills" data-testid="Rectangle"/><g data-testid="Rectangle"><defs><pattern patternUnits="userSpaceOnUse" x="150.098" y="52.253" width="9" height="32" patternTransform="rotate(75 154.598 68.253)" id="d"><rect width="9" height="32" style="fill: rgb(177, 178, 181); fill-opacity: 1;"/><rect width="9" height="32" style="fill: rgb(223, 56, 190); fill-opacity: 1;"/></pattern></defs><path d="m168.888 59.765 2.329 8.694-31.427 6.35-1.294-4.829 30.392-10.215Z" fill="url(#d)" class="fills"/></g><path d="m1.783 104.541 2.329 8.694 30.392-10.215-1.294-4.829-31.427 6.35Z" style="fill: rgb(177, 178, 181); fill-opacity: 1;" class="fills" data-testid="Rectangle"/><g data-testid="Rectangle"><defs><pattern patternUnits="userSpaceOnUse" x="131.851" y="20.649" width="9" height="32" patternTransform="rotate(45 136.351 36.649)" id="e"><rect width="9" height="32" style="fill: rgb(177, 178, 181); fill-opacity: 1;"/><rect width="9" height="32" style="fill: rgb(223, 56, 190); fill-opacity: 1;"/></pattern></defs><path d="m144.483 22.153 6.364 6.364-24.042 21.213-3.535-3.535 21.213-24.042Z" fill="url(#e)" class="fills"/></g><path d="M173 82v9l-32-2v-5l32-2ZM171.217 104.541l-2.329 8.694-30.392-10.215 1.294-4.829 31.427 6.35ZM4.112 59.765l-2.329 8.694 31.427 6.35 1.294-4.829L4.112 59.765ZM0 82v9l32-2v-5L0 82ZM22.153 144.483l6.364 6.364 21.213-24.042-3.535-3.535-24.042 21.213Z" style="fill: rgb(177, 178, 181); fill-opacity: 1;" class="fills" data-testid="Rectangle"/><g data-testid="Rectangle"><defs><pattern patternUnits="userSpaceOnUse" x="143.055" y="35.25" width="9" height="32" patternTransform="rotate(60 147.555 51.25)" id="f"><rect width="9" height="32" style="fill: rgb(177, 178, 181); fill-opacity: 1;"/><rect width="9" height="32" style="fill: rgb(223, 56, 190); fill-opacity: 1;"/></pattern></defs><path d="m159.161 39.353 4.5 7.794-28.713 14.268-2.5-4.33 26.713-17.732Z" fill="url(#f)" class="fills"/></g><path d="m9.339 125.853 4.5 7.794 26.713-17.732-2.5-4.33-28.713 14.268ZM113.235 168.888l-8.694 2.329-6.35-31.427 4.829-1.294 10.215 30.392ZM68.459 1.783l-8.694 2.329L69.98 34.504l4.829-1.294-6.35-31.427ZM163.661 125.853l-4.5 7.794-26.713-17.732 2.5-4.33 28.713 14.268ZM13.839 39.353l-4.5 7.794 28.713 14.268 2.5-4.33-26.713-17.732ZM133.647 159.161l-7.794 4.5-14.268-28.713 4.33-2.5 17.732 26.713ZM47.147 9.339l-7.794 4.5 17.732 26.713 4.33-2.5L47.147 9.339ZM150.847 144.483l-6.364 6.364-21.213-24.042 3.535-3.535 24.042 21.213ZM28.517 22.153l-6.364 6.364L46.195 49.73l3.535-3.535-21.213-24.042Z" style="fill: rgb(177, 178, 181); fill-opacity: 1;" class="fills" data-testid="Rectangle"/></g></svg>