<svg width="310" height="34" viewBox="0 0 310 34" fill="none" xmlns="http://www.w3.org/2000/svg">
<path d="M155.28 0.000976562H160.292L153.923 27.3895H148.27L143.672 6.38507L139.149 27.3895H133.42L127.013 0.000976562H132.214L136.586 21.1565L140.921 0.000976562H146.461L151.133 21.194L155.28 0.000976562ZM170.243 27.8803C165.306 27.8803 160.256 24.5933 160.256 17.2651C160.256 9.93553 165.306 6.61109 170.243 6.61109C175.181 6.61109 180.23 9.93553 180.23 17.2651C180.23 24.5933 175.181 27.8803 170.243 27.8803ZM175.596 17.2651C175.596 12.5806 173.07 10.2765 170.243 10.2765C167.416 10.2765 164.891 12.5807 164.891 17.2651C164.891 21.9495 167.416 24.2162 170.243 24.2162C173.07 24.2162 175.596 21.9495 175.596 17.2651ZM192.148 11.5229C189.321 11.5229 187.701 12.6555 187.701 16.7355V27.3895H183.216V7.06441H187.625V10.6911C188.718 8.42442 190.678 7.06441 193.128 7.02698C193.467 7.02698 193.957 7.06441 194.296 7.10319V11.6365C193.542 11.5603 192.827 11.5229 192.148 11.5229ZM201.549 15.2244L209.048 7.06441H214.438L206.675 15.4143L215.305 27.3895H210.066L203.697 18.5877L201.549 20.8918V27.3896H197.064V0.000976562H201.549L201.549 15.2244ZM221.764 9.7844C222.97 7.78252 225.08 6.61107 227.794 6.61107C232.731 6.61107 236.5 10.7299 236.5 17.2276C236.5 23.7629 232.731 27.8803 227.794 27.8803C225.08 27.8803 222.97 26.7089 221.764 24.707V34.001H217.28V7.06441H221.764V9.7844ZM231.827 17.2276C231.827 12.9577 229.943 10.2765 226.815 10.2765C223.874 10.2765 221.576 12.5432 221.576 17.2276C221.576 21.9121 223.874 24.2162 226.815 24.2162C229.943 24.2162 231.827 21.5336 231.827 17.2276ZM239.907 27.3895V0.000976562H244.393V27.3895H239.907ZM261.348 14.6962V14.3177C261.348 10.8422 259.351 9.7844 257.127 9.7844C254.865 9.7844 253.17 10.9933 253.056 13.4499H248.647C248.949 9.29362 252.379 6.45996 257.278 6.45996C262.139 6.45996 265.947 8.68919 265.833 15.187C265.833 16.2073 265.757 18.5876 265.757 20.4384C265.757 23.0073 265.984 25.6899 266.36 27.3895H262.252C262.102 26.5203 261.951 26.0295 261.876 24.6321C260.594 26.8225 258.182 27.8803 255.204 27.8803C250.795 27.8803 247.705 25.5 247.705 21.7984C247.705 16.7355 253.924 15.4517 261.348 14.6962ZM252.453 21.6847C252.453 23.4606 253.924 24.5184 256.185 24.5184C259.501 24.5184 261.461 22.8187 261.461 19.3806V17.8321C255.055 18.4365 252.453 19.3432 252.453 21.6847ZM283.325 14.0155C282.947 11.8625 281.063 10.3514 278.613 10.3514C275.824 10.3514 273.299 12.4295 273.299 17.2276C273.299 22.0632 275.862 24.1399 278.5 24.1399C280.686 24.1399 282.91 23.1584 283.475 20.4384H287.847C286.943 25.1977 282.759 27.8803 278.424 27.8803C272.545 27.8803 268.663 23.3095 268.663 17.2651C268.663 11.2206 272.582 6.61107 278.613 6.61107C283.023 6.61107 286.943 9.48219 287.696 14.0155L283.325 14.0155ZM299.82 24.1399C302.156 24.1399 304.002 23.1958 304.793 21.3076H309.204C308.262 24.5558 305.247 27.8803 300.008 27.8803C293.488 27.8803 289.756 22.8936 289.756 17.0765C289.756 10.9558 293.939 6.61105 299.706 6.61105C305.924 6.61105 309.807 11.6739 309.429 18.5114H294.316C294.618 22.2892 297.255 24.1399 299.82 24.1399ZM304.869 15.2244C304.756 12.0511 302.344 10.1254 299.706 10.1254C297.596 10.1254 294.694 11.3717 294.316 15.2244H304.869Z" fill="#0D213F"/>
<path d="M23.9881 27.3893H3.53684C2.10194 27.3893 0.819932 26.5307 0.270832 25.2019C-0.278268 23.8731 0.0225798 22.3572 1.03723 21.3403L15.2031 7.14096H5.05014C2.26103 7.14098 1.14683e-05 4.8746 1.14683e-05 2.07887H18.8606C20.2954 2.07887 21.5773 2.9373 22.1265 4.2661C22.6757 5.5949 22.375 7.11056 21.3605 8.12793L7.19463 22.3273H18.938C21.7272 22.3273 23.9881 24.5936 23.9881 27.3893ZM114.386 11.5703C114.386 6.12731 109.968 1.69922 104.538 1.69922C101.633 1.69922 99.0191 2.96697 97.2151 4.97858C95.411 2.96696 92.7969 1.69922 89.8924 1.69922C84.4623 1.69922 80.0446 6.12732 80.0446 11.5703V27.3893C82.8337 27.3893 85.0948 25.123 85.0948 22.3273V11.5703C85.0948 8.91863 87.247 6.76131 89.8924 6.76131C92.5378 6.76131 94.69 8.91863 94.69 11.5703V22.3273C94.69 25.123 96.951 27.3893 99.7401 27.3893V11.5703C99.7401 8.91863 101.892 6.76131 104.538 6.76131C107.183 6.76131 109.335 8.91863 109.335 11.5703V22.3273C109.335 25.123 111.596 27.3893 114.386 27.3893V11.5703ZM77.5196 14.7341C77.5196 21.9331 71.6974 27.769 64.5155 27.769C57.3335 27.769 51.5114 21.9331 51.5114 14.7341C51.5114 7.53514 57.3335 1.69922 64.5155 1.69922C71.6974 1.69922 77.5196 7.53514 77.5196 14.7341ZM72.4694 14.7341C72.4694 10.3309 68.9083 6.76131 64.5155 6.76131C60.1226 6.76131 56.5615 10.3309 56.5615 14.7341C56.5615 19.1374 60.1226 22.7069 64.5155 22.7069C68.9083 22.7069 72.4694 19.1374 72.4694 14.7341ZM49.4913 14.7341C49.4913 21.9331 43.6692 27.769 36.4872 27.769C29.3053 27.769 23.4832 21.9331 23.4832 14.7341C23.4832 7.53514 29.3053 1.69922 36.4872 1.69922C43.6692 1.69922 49.4913 7.53514 49.4913 14.7341ZM44.4412 14.7341C44.4412 10.3309 40.8801 6.76131 36.4872 6.76131C32.0944 6.76131 28.5333 10.3309 28.5333 14.7341C28.5333 19.1374 32.0944 22.7069 36.4872 22.7069C40.8801 22.7069 44.4412 19.1374 44.4412 14.7341Z" fill="#0B5CFF"/>
</svg>
